<?xml version="1.0" encoding="UTF-8" standalone="no"?>
<!DOCTYPE svg PUBLIC "-//W3C//DTD SVG 1.1//EN"
 "http://www.w3.org/Graphics/SVG/1.1/DTD/svg11.dtd">
<!-- Generated by graphviz version 2.38.0 (20140413.2041)
 -->
<!-- Title: G Pages: 1 -->
<svg width="562pt" height="250pt"
 viewBox="0.00 0.00 562.18 250.00" xmlns="http://www.w3.org/2000/svg" xmlns:xlink="http://www.w3.org/1999/xlink">
<g id="graph0" class="graph" transform="scale(1 1) rotate(0) translate(4 246)">
<title>G</title>
<polygon fill="white" stroke="none" points="-4,4 -4,-246 558.175,-246 558.175,4 -4,4"/>
<g id="clust1" class="cluster"><title>cluster_Global</title>
<path fill="none" stroke="gray" d="M338.175,-8C338.175,-8 534.175,-8 534.175,-8 540.175,-8 546.175,-14 546.175,-20 546.175,-20 546.175,-222 546.175,-222 546.175,-228 540.175,-234 534.175,-234 534.175,-234 338.175,-234 338.175,-234 332.175,-234 326.175,-228 326.175,-222 326.175,-222 326.175,-20 326.175,-20 326.175,-14 332.175,-8 338.175,-8"/>
<text text-anchor="middle" x="436.175" y="-221.2" font-family="Times,serif" font-size="11.00" fill="gray">Global</text>
</g>
<g id="clust2" class="cluster"><title>cluster_\Mukarramishaq</title>
<path fill="none" stroke="gray" d="M346.175,-16C346.175,-16 526.175,-16 526.175,-16 532.175,-16 538.175,-22 538.175,-28 538.175,-28 538.175,-194 538.175,-194 538.175,-200 532.175,-206 526.175,-206 526.175,-206 346.175,-206 346.175,-206 340.175,-206 334.175,-200 334.175,-194 334.175,-194 334.175,-28 334.175,-28 334.175,-22 340.175,-16 346.175,-16"/>
<text text-anchor="middle" x="436.175" y="-193.2" font-family="Times,serif" font-size="11.00" fill="gray">Mukarramishaq</text>
</g>
<g id="clust3" class="cluster"><title>cluster_\Mukarramishaq\TestHash</title>
<path fill="none" stroke="gray" d="M354.175,-24C354.175,-24 518.175,-24 518.175,-24 524.175,-24 530.175,-30 530.175,-36 530.175,-36 530.175,-166 530.175,-166 530.175,-172 524.175,-178 518.175,-178 518.175,-178 354.175,-178 354.175,-178 348.175,-178 342.175,-172 342.175,-166 342.175,-166 342.175,-36 342.175,-36 342.175,-30 348.175,-24 354.175,-24"/>
<text text-anchor="middle" x="436.175" y="-165.2" font-family="Times,serif" font-size="11.00" fill="gray">TestHash</text>
</g>
<g id="clust4" class="cluster"><title>cluster_\Mukarramishaq\TestHash\Helpers</title>
<path fill="none" stroke="gray" d="M404.675,-78C404.675,-78 467.675,-78 467.675,-78 473.675,-78 479.675,-84 479.675,-90 479.675,-90 479.675,-138 479.675,-138 479.675,-144 473.675,-150 467.675,-150 467.675,-150 404.675,-150 404.675,-150 398.675,-150 392.675,-144 392.675,-138 392.675,-138 392.675,-90 392.675,-90 392.675,-84 398.675,-78 404.675,-78"/>
<text text-anchor="middle" x="436.175" y="-137.2" font-family="Times,serif" font-size="11.00" fill="gray">Helpers</text>
</g>
<!-- \\Mukarramishaq\\TestHash\\Helpers\\TestHash -->
<g id="node1" class="node"><title>\\Mukarramishaq\\TestHash\\Helpers\\TestHash</title>
<polygon fill="none" stroke="black" points="471.675,-122 400.675,-122 400.675,-86 471.675,-86 471.675,-122"/>
<text text-anchor="middle" x="436.175" y="-101.2" font-family="Courier,monospace" font-size="11.00">TestHash</text>
</g>
<!-- \\Mukarramishaq\\TestHash\\TestHashServiceProvider -->
<g id="node2" class="node"><title>\\Mukarramishaq\\TestHash\\TestHashServiceProvider</title>
<polygon fill="none" stroke="black" points="522.175,-68 350.175,-68 350.175,-32 522.175,-32 522.175,-68"/>
<text text-anchor="middle" x="436.175" y="-47.2" font-family="Courier,monospace" font-size="11.00">TestHashServiceProvider</text>
</g>
<!-- \\Illuminate\\Support\\ServiceProvider -->
<g id="node3" class="node"><title>\\Illuminate\\Support\\ServiceProvider</title>
<ellipse fill="none" stroke="black" cx="139.088" cy="-50" rx="139.175" ry="18"/>
<text text-anchor="middle" x="139.088" y="-46.3" font-family="Times,serif" font-size="14.00" fill="gray">\Illuminate\Support\ServiceProvider</text>
</g>
<!-- \\Mukarramishaq\\TestHash\\TestHashServiceProvider&#45;&gt;\\Illuminate\\Support\\ServiceProvider -->
<g id="edge1" class="edge"><title>\\Mukarramishaq\\TestHash\\TestHashServiceProvider&#45;&gt;\\Illuminate\\Support\\ServiceProvider</title>
<path fill="none" stroke="black" d="M349.824,-50C330.501,-50 309.435,-50 288.351,-50"/>
<polygon fill="none" stroke="black" points="288.338,-46.5001 278.338,-50 288.338,-53.5001 288.338,-46.5001"/>
</g>
</g>
</svg>
